<?xml version="1.0" encoding="utf-8"?>
<!-- Generator: Adobe Illustrator 14.0.0, SVG Export Plug-In . SVG Version: 6.00 Build 43363)  -->
<!DOCTYPE svg PUBLIC "-//W3C//DTD SVG 1.1//EN" "http://www.w3.org/Graphics/SVG/1.1/DTD/svg11.dtd">
<svg version="1.1" id="Layer_1" xmlns="http://www.w3.org/2000/svg" xmlns:xlink="http://www.w3.org/1999/xlink" x="0px" y="0px"
	 width="365.767px" height="267.254px" viewBox="0 0 365.767 267.254" enable-background="new 0 0 365.767 267.254"
	 xml:space="preserve">
<g>
	<path fill="#FFFFFF" d="M227.327,2.004l-126.81,126.811c-2.671,2.671-2.671,7.004,0,9.676l126.759,126.76
		c2.673,2.672,7.005,2.672,9.676,0l126.811-126.811c2.672-2.671,2.672-7.004,0-9.676L237.004,2.005
		C234.332-0.667,229.999-0.667,227.327,2.004z M140.907,113.855c1.61-1.611,4.222-1.61,5.833,0.001
		c1.611,1.611,1.612,4.223,0.001,5.833c-1.612,1.612-4.225,1.612-5.835,0.001S139.295,115.467,140.907,113.855z M132.422,122.339
		c1.611-1.61,4.224-1.61,5.834,0s1.611,4.223,0,5.834c-1.611,1.611-4.224,1.611-5.835,0
		C130.812,126.562,130.812,123.95,132.422,122.339z M123.939,130.823c1.611-1.612,4.223-1.611,5.833,0
		c1.611,1.61,1.612,4.223,0.001,5.834c-1.611,1.609-4.224,1.609-5.834-0.001C122.328,135.046,122.328,132.434,123.939,130.823z
		 M221.48,234.199l-74.165-74.087l111.23-111.231l74.166,74.087L221.48,234.199z M252.251,42.507L141.02,153.738l-8.682-8.681
		L243.57,33.826L252.251,42.507z"/>
	<path fill="#FFFFFF" d="M209.338,98.106l24.861,24.861L122.968,234.2l-88.903-88.903L145.297,34.065l25.023,25.022l12.626-12.627
		L138.491,2.004c-2.672-2.672-7.004-2.673-9.678,0L2.004,128.814c-2.672,2.672-2.672,7.004,0,9.676l126.759,126.76
		c2.672,2.673,7.005,2.673,9.677,0l126.809-126.81c2.674-2.673,2.673-7.005,0.001-9.678l-43.284-43.284L209.338,98.106z"/>
</g>
</svg>
